<svg width="414" height="315" viewBox="0 0 414 315" fill="none" xmlns="http://www.w3.org/2000/svg">
<path d="M82.4868 315C128.043 315 164.974 311.933 164.974 308.149C164.974 304.365 128.043 301.298 82.4868 301.298C36.9306 301.298 0 304.365 0 308.149C0 311.933 36.9306 315 82.4868 315Z" fill="#E6E6E6"/>
<path d="M63.0514 69.893C77.4065 63.2158 95.2861 67.4464 112.747 70.3826C112.91 66.8268 114.88 62.4993 112.816 60.0186C110.31 57.0048 110.541 53.8381 112.049 50.6532C115.906 42.5089 110.38 33.8429 104.8 26.6372C103.543 25.0167 101.953 23.7435 100.161 22.921C98.3694 22.0984 96.4252 21.7497 94.4867 21.9032L84.1511 22.7105C81.636 22.907 79.2358 23.9387 77.2716 25.6678C75.3074 27.3968 73.8729 29.7406 73.16 32.3856C70.6921 36.0562 69.3712 39.7166 70.2028 43.358C66.5062 46.1207 65.8852 49.4554 67.5463 53.2148C68.9548 55.5818 68.9398 57.8859 67.4822 60.1262C65.5679 62.9825 64.1017 66.1673 63.1438 69.5501L63.0514 69.893Z" fill="#2F2E41"/>
<path d="M404.19 272.312H111.614C109.012 272.312 106.516 271.182 104.677 269.17C102.837 267.158 101.803 264.429 101.803 261.584C207.862 248.104 311.928 248.104 414 261.584C414 264.429 412.966 267.158 411.127 269.17C409.287 271.182 406.792 272.312 404.19 272.312Z" fill="#2F2E41"/>
<path d="M414 262.215L101.803 261.584L137.986 195.005L138.159 194.689V47.956C138.159 46.175 138.479 44.4114 139.103 42.7659C139.726 41.1204 140.639 39.6253 141.791 38.3659C142.942 37.1065 144.31 36.1076 145.814 35.4261C147.319 34.7446 148.932 34.3939 150.56 34.394H363.512C365.14 34.3939 366.753 34.7446 368.258 35.4261C369.762 36.1076 371.13 37.1065 372.281 38.3659C373.433 39.6253 374.346 41.1204 374.969 42.7659C375.593 44.4114 375.913 46.175 375.913 47.956V195.699L414 262.215Z" fill="#3F3D56"/>
<path d="M150.277 43.8603C149.206 43.8616 148.18 44.3275 147.422 45.1556C146.665 45.9838 146.239 47.1067 146.238 48.2779V182.068C146.239 183.239 146.665 184.362 147.422 185.19C148.18 186.018 149.206 186.484 150.277 186.485H365.526C366.597 186.484 367.624 186.018 368.381 185.19C369.138 184.362 369.564 183.239 369.565 182.068V48.2779C369.564 47.1067 369.138 45.9838 368.381 45.1557C367.624 44.3275 366.597 43.8617 365.526 43.8603H150.277Z" fill="white"/>
<path d="M151.179 204.155C150.848 204.156 150.525 204.26 150.246 204.455C149.967 204.651 149.745 204.929 149.607 205.257L138.458 231.763C138.336 232.051 138.283 232.369 138.303 232.685C138.323 233.002 138.416 233.308 138.573 233.576C138.729 233.843 138.945 234.063 139.199 234.215C139.454 234.368 139.74 234.447 140.03 234.447H374.487C374.782 234.447 375.072 234.365 375.33 234.208C375.588 234.051 375.804 233.824 375.959 233.549C376.115 233.275 376.203 232.962 376.216 232.639C376.229 232.317 376.167 231.996 376.035 231.707L363.916 205.202C363.773 204.887 363.553 204.622 363.279 204.437C363.005 204.252 362.69 204.154 362.368 204.155H151.179Z" fill="#2F2E41"/>
<path d="M257.036 41.6515C258.47 41.6515 259.633 40.38 259.633 38.8116C259.633 37.2432 258.47 35.9717 257.036 35.9717C255.602 35.9717 254.439 37.2432 254.439 38.8116C254.439 40.38 255.602 41.6515 257.036 41.6515Z" fill="white"/>
<path d="M233.991 239.496C233.61 239.497 233.24 239.634 232.938 239.887C232.636 240.14 232.419 240.495 232.319 240.897L229.523 252.256C229.454 252.537 229.444 252.831 229.496 253.116C229.548 253.401 229.659 253.67 229.82 253.9C229.982 254.131 230.19 254.318 230.428 254.447C230.666 254.575 230.929 254.642 231.194 254.642H284.379C284.655 254.642 284.927 254.57 285.173 254.432C285.418 254.293 285.629 254.093 285.79 253.847C285.95 253.601 286.054 253.317 286.093 253.018C286.132 252.719 286.105 252.415 286.015 252.13L282.419 240.77C282.302 240.398 282.081 240.076 281.787 239.847C281.494 239.619 281.143 239.496 280.783 239.496H233.991Z" fill="#2F2E41"/>
<path d="M375.913 192.48V195.005H137.986L138.165 194.689V192.48H375.913Z" fill="#2F2E41"/>
<path d="M369.277 88.3517C391.586 88.3517 409.672 68.5735 409.672 44.1758C409.672 19.7782 391.586 0 369.277 0C346.967 0 328.882 19.7782 328.882 44.1758C328.882 68.5735 346.967 88.3517 369.277 88.3517Z" fill="#8F21B8"/>
<path d="M386.012 63.4239H352.542C351.93 63.4232 351.343 63.1571 350.91 62.6838C350.477 62.2105 350.234 61.5688 350.233 60.8996V38.8116C350.234 38.1423 350.477 37.5007 350.91 37.0274C351.343 36.5542 351.93 36.288 352.542 36.2873H386.012C386.624 36.288 387.211 36.5542 387.643 37.0274C388.076 37.5007 388.32 38.1423 388.32 38.8116V60.8995C388.32 61.5688 388.076 62.2105 387.643 62.6838C387.211 63.1571 386.624 63.4232 386.012 63.4239ZM352.542 38.8116V60.8996H386.014L386.012 38.8116L352.542 38.8116Z" fill="white"/>
<path d="M379.664 38.8116H358.889V28.7143C358.889 21.4008 363.258 16.0926 369.277 16.0926C375.296 16.0926 379.664 21.4008 379.664 28.7143L379.664 38.8116ZM361.198 36.2873H377.356V28.7143C377.356 22.7692 374.034 18.617 369.277 18.617C364.52 18.617 361.198 22.7692 361.198 28.7143L361.198 36.2873Z" fill="white"/>
<path d="M369.277 51.7488C370.552 51.7488 371.585 50.6186 371.585 49.2245C371.585 47.8303 370.552 46.7002 369.277 46.7002C368.002 46.7002 366.969 47.8303 366.969 49.2245C366.969 50.6186 368.002 51.7488 369.277 51.7488Z" fill="white"/>
<path d="M341.078 141.105H174.726C173.909 141.104 173.126 140.749 172.549 140.117C171.971 139.486 171.646 138.629 171.645 137.736V92.6093C171.646 91.7161 171.971 90.8598 172.549 90.2282C173.126 89.5967 173.909 89.2414 174.726 89.2404H341.078C341.894 89.2414 342.677 89.5967 343.255 90.2282C343.832 90.8598 344.157 91.7161 344.158 92.6093V137.736C344.157 138.629 343.832 139.486 343.255 140.117C342.677 140.749 341.894 141.104 341.078 141.105ZM174.726 90.5879C174.236 90.5885 173.766 90.8017 173.419 91.1806C173.073 91.5596 172.878 92.0734 172.877 92.6093V137.736C172.878 138.272 173.073 138.786 173.419 139.165C173.766 139.544 174.236 139.757 174.726 139.757H341.078C341.568 139.757 342.037 139.544 342.384 139.165C342.73 138.786 342.925 138.272 342.926 137.736V92.6093C342.925 92.0733 342.73 91.5595 342.384 91.1806C342.037 90.8016 341.568 90.5885 341.078 90.5879L174.726 90.5879Z" fill="#E6E6E6"/>
<path d="M200.573 127.164C207.504 127.164 213.122 121.02 213.122 113.441C213.122 105.862 207.504 99.718 200.573 99.718C193.643 99.718 188.025 105.862 188.025 113.441C188.025 121.02 193.643 127.164 200.573 127.164Z" fill="#E6E6E6"/>
<path d="M229.555 104.292C229.28 104.292 229.008 104.351 228.754 104.465C228.499 104.58 228.268 104.749 228.074 104.961C227.879 105.173 227.725 105.426 227.62 105.704C227.514 105.981 227.46 106.279 227.46 106.58C227.46 106.88 227.514 107.178 227.62 107.456C227.725 107.733 227.879 107.986 228.074 108.198C228.268 108.411 228.499 108.579 228.754 108.694C229.008 108.808 229.28 108.867 229.555 108.867H328.151C328.706 108.867 329.238 108.626 329.63 108.197C330.023 107.768 330.243 107.186 330.243 106.58C330.243 105.973 330.023 105.391 329.63 104.962C329.238 104.533 328.706 104.292 328.151 104.292H229.555Z" fill="#E6E6E6"/>
<path d="M229.555 118.016C229 118.016 228.468 118.257 228.076 118.685C227.684 119.114 227.463 119.696 227.463 120.303C227.463 120.909 227.684 121.491 228.076 121.92C228.468 122.349 229 122.59 229.555 122.59H271.981C272.536 122.59 273.068 122.349 273.46 121.92C273.852 121.491 274.073 120.909 274.073 120.303C274.073 119.696 273.852 119.114 273.46 118.685C273.068 118.257 272.536 118.016 271.981 118.016H229.555Z" fill="#E6E6E6"/>
<path d="M137.576 118.941L106.825 136.82L106.436 121.921C116.473 120.088 126.022 116.898 134.852 111.704L138.068 103.014C138.418 102.068 138.988 101.237 139.721 100.603C140.453 99.9698 141.324 99.5557 142.248 99.4015C143.171 99.2473 144.115 99.3583 144.987 99.7237C145.86 100.089 146.63 100.696 147.223 101.486C148.09 102.64 148.524 104.113 148.436 105.604C148.348 107.096 147.745 108.495 146.749 109.518L137.576 118.941Z" fill="#FFB8B8"/>
<path d="M62.4384 222.168C62.2141 221.268 62.1664 220.326 62.2986 219.405C62.4308 218.484 62.7399 217.603 63.2055 216.822L69.9607 205.484C71.5584 202.803 74.0101 200.866 76.8399 200.05C79.6698 199.233 82.6761 199.595 85.2755 201.066C82.4365 206.351 82.8323 210.987 86.256 215.016C80.9411 217.853 76.0288 221.516 71.6715 225.889C70.876 226.482 69.9625 226.859 69.007 226.988C68.0515 227.116 67.0816 226.994 66.1783 226.629C65.275 226.265 64.4643 225.67 63.8137 224.894C63.1632 224.118 62.6917 223.183 62.4384 222.168Z" fill="#2F2E41"/>
<path d="M138.977 207.344C137.955 209.207 136.512 210.751 134.787 211.829C133.061 212.907 131.112 213.481 129.125 213.498L84.248 213.87L82.3018 201.525L102.154 195.139L85.4158 181.092L103.711 157.679L136.941 191.549C138.883 193.528 140.145 196.177 140.515 199.052C140.886 201.927 140.343 204.854 138.977 207.344Z" fill="#2F2E41"/>
<path d="M77.2414 291.771H66.7314C57.295 221.034 47.6896 150.099 76.0736 123.623L109.55 129.583L105.268 160.658L86.5836 184.071L77.2414 291.771Z" fill="#2F2E41"/>
<path d="M86.4801 307.795C85.6574 308.04 84.7965 308.093 83.9539 307.948C83.1114 307.803 82.3065 307.466 81.5919 306.956L70.1803 305.279C67.7281 303.532 65.9568 300.851 65.2101 297.756C64.4633 294.662 64.7944 291.374 66.139 288.531C70.9716 291.635 75.211 291.202 78.8949 287.458C81.4979 293.206 85.7867 292.855 89.8827 297.698C90.425 298.567 90.7694 299.566 90.8872 300.611C91.005 301.656 90.8928 302.717 90.5599 303.705C90.227 304.693 89.6831 305.579 88.9734 306.291C88.2638 307.002 87.409 307.518 86.4801 307.795Z" fill="#2F2E41"/>
<path d="M102.154 76.3718L82.691 71.2635C85.9235 64.0276 86.1896 55.9762 84.6372 47.4248L97.872 46.9991C98.2867 57.6329 99.5413 67.5676 102.154 76.3718Z" fill="#FFB8B8"/>
<path d="M107.503 142.4C93.3347 152.959 83.3238 142.762 75.6843 127.029C76.7459 117.402 75.027 105.881 71.8436 93.3633C70.4278 87.8419 70.9564 81.9407 73.325 76.8247C75.6935 71.7088 79.7299 67.7498 84.6372 65.7295L101.375 73.392C115.588 86.0611 118.385 99.7844 113.053 114.258L107.503 142.4Z" fill="#8F21B8"/>
<path d="M66.7314 87.014L51.161 95.9535L78.7984 113.832L82.6439 124.206C82.9006 124.898 83.0257 125.641 83.0114 126.388C82.9972 127.135 82.844 127.871 82.5612 128.551C82.2784 129.231 81.8719 129.841 81.3665 130.343C80.8611 130.846 80.2674 131.231 79.6216 131.474C78.8874 131.751 78.1046 131.839 77.3345 131.729C76.5643 131.62 75.8278 131.317 75.1825 130.845C74.5372 130.372 74.0006 129.743 73.6149 129.006C73.2292 128.269 73.0048 127.444 72.9592 126.596L72.5703 119.366L37.4435 106.69C36.26 106.263 35.1809 105.547 34.2879 104.596C33.3949 103.645 32.7115 102.485 32.2893 101.202C31.674 99.333 31.6427 97.2935 32.2003 95.4027C32.7579 93.5119 33.8729 91.8766 35.3709 90.7528L63.6173 69.5607L66.7314 87.014Z" fill="#FFB8B8"/>
<path d="M82.3017 88.7168C75.8079 85.6046 69.9029 88.9854 62.4496 91.6966L61.2818 69.135C68.6827 64.8213 75.7389 63.6582 82.3017 67.0066L82.3017 88.7168Z" fill="#8F21B8"/>
<path d="M90.0698 58.1747C96.9326 58.1747 102.496 52.0905 102.496 44.5853C102.496 37.0802 96.9326 30.996 90.0698 30.996C83.2069 30.996 77.6435 37.0802 77.6435 44.5853C77.6435 52.0905 83.2069 58.1747 90.0698 58.1747Z" fill="#FFB8B8"/>
<path d="M104.936 42.8707C92.6326 44.1885 83.2577 41.988 77.2661 35.7226V30.6769H103.892L104.936 42.8707Z" fill="#2F2E41"/>
</svg>
